<?xml version="1.0" encoding="utf-8"?><svg xmlns="http://www.w3.org/2000/svg" xmlns:xlink="http://www.w3.org/1999/xlink"><symbol viewBox="0 0 482.9 482.9" id="avatar" xmlns="http://www.w3.org/2000/svg"><path d="M239.7 260.2h3.2c29.3-.5 53-10.8 70.5-30.5 38.5-43.4 32.1-117.8 31.4-124.9-2.5-53.3-27.7-78.8-48.5-90.7C280.8 5.2 262.7.4 242.5 0h-1.7c-11.1 0-32.9 1.8-53.8 13.7-21 11.9-46.6 37.4-49.1 91.1-.7 7.1-7.1 81.5 31.4 124.9 17.4 19.7 41.1 30 70.4 30.5zm-75.1-152.9c0-.3.1-.6.1-.8 3.3-71.7 54.2-79.4 76-79.4h1.2c27 .6 72.9 11.6 76 79.4 0 .3 0 .6.1.8.1.7 7.1 68.7-24.7 104.5-12.6 14.2-29.4 21.2-51.5 21.4h-1c-22-.2-38.9-7.2-51.4-21.4-31.7-35.6-24.9-103.9-24.8-104.5z"/><path d="M446.8 383.6v-.3c0-.8-.1-1.6-.1-2.5-.6-19.8-1.9-66.1-45.3-80.9-.3-.1-.7-.2-1-.3-45.1-11.5-82.6-37.5-83-37.8-6.1-4.3-14.5-2.8-18.8 3.3-4.3 6.1-2.8 14.5 3.3 18.8 1.7 1.2 41.5 28.9 91.3 41.7 23.3 8.3 25.9 33.2 26.6 56 0 .9 0 1.7.1 2.5.1 9-.5 22.9-2.1 30.9-16.2 9.2-79.7 41-176.3 41-96.2 0-160.1-31.9-176.4-41.1-1.6-8-2.3-21.9-2.1-30.9 0-.8.1-1.6.1-2.5.7-22.8 3.3-47.7 26.6-56 49.8-12.8 89.6-40.6 91.3-41.7 6.1-4.3 7.6-12.7 3.3-18.8-4.3-6.1-12.7-7.6-18.8-3.3-.4.3-37.7 26.3-83 37.8-.4.1-.7.2-1 .3-43.4 14.9-44.7 61.2-45.3 80.9 0 .9 0 1.7-.1 2.5v.3c-.1 5.2-.2 31.9 5.1 45.3 1 2.6 2.8 4.8 5.2 6.3 3 2 74.9 47.8 195.2 47.8s192.2-45.9 195.2-47.8c2.3-1.5 4.2-3.7 5.2-6.3 5-13.3 4.9-40 4.8-45.2z"/></symbol><symbol viewBox="0 0 240.823 240.823" id="next" xmlns="http://www.w3.org/2000/svg"><path d="M183.189 111.816L74.892 3.555c-4.752-4.74-12.451-4.74-17.215 0-4.752 4.74-4.752 12.439 0 17.179l99.707 99.671-99.695 99.671c-4.752 4.74-4.752 12.439 0 17.191 4.752 4.74 12.463 4.74 17.215 0l108.297-108.261c4.68-4.691 4.68-12.511-.012-17.19z"/></symbol><symbol viewBox="0 0 512 512" id="pin" xmlns="http://www.w3.org/2000/svg"><path d="M256 0C161.896 0 85.333 76.563 85.333 170.667c0 28.25 7.063 56.26 20.49 81.104L246.667 506.5c1.875 3.396 5.448 5.5 9.333 5.5s7.458-2.104 9.333-5.5l140.896-254.813c13.375-24.76 20.438-52.771 20.438-81.021C426.667 76.563 350.104 0 256 0zm0 256c-47.052 0-85.333-38.281-85.333-85.333S208.948 85.334 256 85.334s85.333 38.281 85.333 85.333S303.052 256 256 256z"/></symbol><symbol viewBox="0 0 475.078 475.077" id="puzzle" xmlns="http://www.w3.org/2000/svg"><path d="M462.094 285.791c-8.658-11.231-20.793-16.851-36.398-16.851-8.186 0-16.084 1.43-23.694 4.284-7.625 2.854-13.765 6.044-18.426 9.564-4.653 3.519-9.705 6.711-15.125 9.565-5.421 2.854-10.232 4.288-14.414 4.288-8.569 0-17.036-4.381-25.413-13.135-6.663-7.046-9.993-18.175-9.993-33.403 0-18.083 2.279-41.399 6.845-69.949.198-.571.526-2.618.999-6.139.486-3.518.951-6.757 1.431-9.707.472-2.95.801-4.615.992-4.998v-.57c-8.938.382-24.455 1.997-46.534 4.853-22.08 2.856-39.205 4.283-51.391 4.283-11.61 0-21.414-2.521-29.408-7.566-7.993-5.043-11.991-12.991-11.991-23.839 0-7.045 1.668-13.8 4.996-20.273 3.33-6.473 6.947-11.851 10.85-16.134 3.905-4.286 7.521-9.9 10.85-16.846 3.332-6.942 4.996-14.322 4.996-22.123 0-15.037-5.136-26.794-15.415-35.26-10.278-8.466-23.029-12.703-38.256-12.703-16.18 0-29.88 4.332-41.112 12.99-11.228 8.66-16.845 20.795-16.845 36.403 0 8.182 1.427 16.081 4.283 23.695 2.853 7.613 6.04 13.752 9.563 18.417 3.521 4.665 6.71 9.707 9.563 15.131 2.856 5.428 4.281 10.232 4.281 14.419 0 8.566-4.377 17.036-13.134 25.41-7.043 6.663-18.175 10-33.402 10-18.083 0-41.399-2.286-69.949-6.854-.568-.2-2.615-.534-6.136-1.01-3.523-.477-6.757-.95-9.707-1.427-2.952-.476-4.62-.806-4.998-.999V451.67c0 .191.19.287.571.287.378.188.666.28.855.28l3.711.575c1.716.373 4.331.76 7.852 1.137 3.523.38 6.14.767 7.854 1.14 28.549 4.571 51.866 6.854 69.949 6.854 15.227 0 26.359-3.334 33.402-10 8.757-8.374 13.134-16.847 13.134-25.406 0-4.185-1.425-8.99-4.281-14.421-2.853-5.421-6.045-10.461-9.563-15.126-3.518-4.664-6.707-10.804-9.563-18.415-2.856-7.613-4.283-15.512-4.283-23.698 0-15.608 5.617-27.747 16.846-36.404 11.228-8.662 24.838-12.991 40.824-12.991 15.419 0 28.266 4.237 38.544 12.703 10.278 8.467 15.415 20.226 15.415 35.262 0 7.8-1.665 15.182-4.996 22.121-3.33 6.951-6.951 12.56-10.85 16.851-3.903 4.285-7.517 9.657-10.85 16.133-3.331 6.468-4.996 13.227-4.996 20.266 0 10.855 3.995 18.802 11.991 23.846 7.998 5.041 17.799 7.56 29.408 7.56 8.758 0 18.083-.473 27.979-1.427 9.897-.948 20.889-2.235 32.977-3.854 12.087-1.619 21.36-2.718 27.832-3.285 2.098-.195 5.239-.288 9.421-.288v-1.423c.192-7.423-1.235-18.367-4.277-32.836-3.046-14.462-4.575-25.406-4.575-32.832 0-23.603 10.468-35.402 31.408-35.402 7.046 0 13.802 1.666 20.273 4.996 6.471 3.333 11.847 6.954 16.128 10.852 4.288 3.905 9.911 7.519 16.854 10.852 6.943 3.327 14.314 4.997 22.117 4.997 15.037 0 26.796-5.141 35.262-15.417 8.474-10.284 12.703-23.124 12.703-38.541 0-15.994-4.326-29.594-12.984-40.825z"/></symbol></svg>